<?xml version="1.0" encoding="UTF-8" standalone="no"?>
<!DOCTYPE svg PUBLIC "-//W3C//DTD SVG 1.1//EN" "http://www.w3.org/Graphics/SVG/1.1/DTD/svg11.dtd">
<svg version="1.1" xmlns:xl="http://www.w3.org/1999/xlink" xmlns="http://www.w3.org/2000/svg" xmlns:dc="http://purl.org/dc/elements/1.1/" viewBox="438 325 1401 348" width="1401" height="348">
  <defs>
    <marker orient="auto" overflow="visible" markerUnits="strokeWidth" id="FilledArrow_Marker" stroke-linejoin="miter" stroke-miterlimit="10" viewBox="-1 -4 10 8" markerWidth="10" markerHeight="8" color="black">
      <g>
        <path d="M 8 0 L 0 -3 L 0 3 Z" fill="currentColor" stroke="currentColor" stroke-width="1"/>
      </g>
    </marker>
  </defs>
  <g id="fluent" stroke-opacity="1" stroke-dasharray="none" fill="none" stroke="none" fill-opacity="1">
    <title>fluent</title>
    <rect fill="white" x="438" y="325" width="1401" height="348"/>
    <g id="fluent_Layer_1">
      <title>Layer 1</title>
      <g id="Graphic_3">
        <path d="M 459.5 355 L 548.5 355 C 560.098 355 569.5 364.402 569.5 376 L 569.5 382.5 C 569.5 394.098 560.098 403.5 548.5 403.5 L 459.5 403.5 C 447.902 403.5 438.5 394.098 438.5 382.5 L 438.5 376 C 438.5 364.402 447.902 355 459.5 355 Z" fill="white"/>
        <path d="M 459.5 355 L 548.5 355 C 560.098 355 569.5 364.402 569.5 376 L 569.5 382.5 C 569.5 394.098 560.098 403.5 548.5 403.5 L 459.5 403.5 C 447.902 403.5 438.5 394.098 438.5 382.5 L 438.5 376 C 438.5 364.402 447.902 355 459.5 355 Z" stroke="gray" stroke-linecap="round" stroke-linejoin="round" stroke-width="1"/>
        <text transform="translate(443.5 370.026)" fill="black">
          <tspan font-family="Helvetica Neue" font-size="16" fill="black" x="8.052" y="15">Compiler.java()</tspan>
        </text>
      </g>
      <g id="Graphic_4">
        <path d="M 661.5 355 L 750.5 355 C 762.098 355 771.5 364.402 771.5 376 L 771.5 382.5 C 771.5 394.098 762.098 403.5 750.5 403.5 L 661.5 403.5 C 649.902 403.5 640.5 394.098 640.5 382.5 L 640.5 376 C 640.5 364.402 649.902 355 661.5 355 Z" fill="white"/>
        <path d="M 661.5 355 L 750.5 355 C 762.098 355 771.5 364.402 771.5 376 L 771.5 382.5 C 771.5 394.098 762.098 403.5 750.5 403.5 L 661.5 403.5 C 649.902 403.5 640.5 394.098 640.5 382.5 L 640.5 376 C 640.5 364.402 649.902 355 661.5 355 Z" stroke="gray" stroke-linecap="round" stroke-linejoin="round" stroke-width="1"/>
        <text transform="translate(645.5 370.026)" fill="black">
          <tspan font-family="Helvetica Neue" font-size="16" fill="black" x="27.604" y="15">from( … )</tspan>
        </text>
      </g>
      <g id="Graphic_5">
        <path d="M 863.5 355 L 952.5 355 C 964.098 355 973.5 364.402 973.5 376 L 973.5 382.5 C 973.5 394.098 964.098 403.5 952.5 403.5 L 863.5 403.5 C 851.902 403.5 842.5 394.098 842.5 382.5 L 842.5 376 C 842.5 364.402 851.902 355 863.5 355 Z" fill="white"/>
        <path d="M 863.5 355 L 952.5 355 C 964.098 355 973.5 364.402 973.5 376 L 973.5 382.5 C 973.5 394.098 964.098 403.5 952.5 403.5 L 863.5 403.5 C 851.902 403.5 842.5 394.098 842.5 382.5 L 842.5 376 C 842.5 364.402 851.902 355 863.5 355 Z" stroke="gray" stroke-linecap="round" stroke-linejoin="round" stroke-width="1"/>
        <text transform="translate(847.5 370.026)" fill="black">
          <tspan font-family="Helvetica Neue" font-size="16" fill="black" x="19.452" y="15">hidden( … )</tspan>
        </text>
      </g>
      <g id="Graphic_6">
        <path d="M 863.5 432 L 952.5 432 C 964.098 432 973.5 441.402 973.5 453 L 973.5 459.5 C 973.5 471.098 964.098 480.5 952.5 480.5 L 863.5 480.5 C 851.902 480.5 842.5 471.098 842.5 459.5 L 842.5 453 C 842.5 441.402 851.902 432 863.5 432 Z" fill="white"/>
        <path d="M 863.5 432 L 952.5 432 C 964.098 432 973.5 441.402 973.5 453 L 973.5 459.5 C 973.5 471.098 964.098 480.5 952.5 480.5 L 863.5 480.5 C 851.902 480.5 842.5 471.098 842.5 459.5 L 842.5 453 C 842.5 441.402 851.902 432 863.5 432 Z" stroke="gray" stroke-linecap="round" stroke-linejoin="round" stroke-width="1"/>
        <text transform="translate(847.5 447.026)" fill="black">
          <tspan font-family="Helvetica Neue" font-size="16" fill="black" x="19.3" y="15">named( … )</tspan>
        </text>
      </g>
      <g id="Graphic_7">
        <path d="M 863.5 509 L 952.5 509 C 964.098 509 973.5 518.402 973.5 530 L 973.5 536.5 C 973.5 548.098 964.098 557.5 952.5 557.5 L 863.5 557.5 C 851.902 557.5 842.5 548.098 842.5 536.5 L 842.5 530 C 842.5 518.402 851.902 509 863.5 509 Z" fill="white"/>
        <path d="M 863.5 509 L 952.5 509 C 964.098 509 973.5 518.402 973.5 530 L 973.5 536.5 C 973.5 548.098 964.098 557.5 952.5 557.5 L 863.5 557.5 C 851.902 557.5 842.5 548.098 842.5 536.5 L 842.5 530 C 842.5 518.402 851.902 509 863.5 509 Z" stroke="gray" stroke-linecap="round" stroke-linejoin="round" stroke-width="1"/>
        <text transform="translate(847.5 524.026)" fill="black">
          <tspan font-family="Helvetica Neue" font-size="16" fill="black" x="28.644" y="15">nest( … )</tspan>
        </text>
      </g>
      <g id="Line_8">
        <line x1="569.5" y1="379.25" x2="630.6" y2="379.25" marker-end="url(#FilledArrow_Marker)" stroke="black" stroke-linecap="round" stroke-linejoin="round" stroke-width="1"/>
      </g>
      <g id="Line_9">
        <line x1="771.5" y1="379.25" x2="832.6" y2="379.25" marker-end="url(#FilledArrow_Marker)" stroke="black" stroke-linecap="round" stroke-linejoin="round" stroke-width="1"/>
      </g>
      <g id="Line_10">
        <path d="M 771.5 379.25 L 801 379.25 C 804.3137 379.25 807 381.9363 807 385.25 L 807 450.25 C 807 453.5637 809.6863 456.25 813 456.25 L 832.6 456.25" marker-end="url(#FilledArrow_Marker)" stroke="black" stroke-linecap="round" stroke-linejoin="round" stroke-width="1"/>
      </g>
      <g id="Line_11">
        <path d="M 771.5 379.25 L 800.8867 379.25 C 804.2004 379.25 806.8867 381.9363 806.8867 385.25 L 806.8867 527.25 C 806.8867 530.5637 809.573 533.25 812.8867 533.25 L 832.6 533.25" marker-end="url(#FilledArrow_Marker)" stroke="black" stroke-linecap="round" stroke-linejoin="round" stroke-width="1"/>
      </g>
      <g id="Graphic_13">
        <path d="M 1048.25 509 L 1048.25 509 C 1061.6429 509 1072.5 519.8571 1072.5 533.25 L 1072.5 533.25 C 1072.5 546.6429 1061.6429 557.5 1048.25 557.5 L 1048.25 557.5 C 1034.8571 557.5 1024 546.6429 1024 533.25 L 1024 533.25 C 1024 519.8571 1034.8571 509 1048.25 509 Z" fill="white"/>
        <path d="M 1048.25 509 L 1048.25 509 C 1061.6429 509 1072.5 519.8571 1072.5 533.25 L 1072.5 533.25 C 1072.5 546.6429 1061.6429 557.5 1048.25 557.5 L 1048.25 557.5 C 1034.8571 557.5 1024 546.6429 1024 533.25 L 1024 533.25 C 1024 519.8571 1034.8571 509 1048.25 509 Z" stroke="gray" stroke-linecap="round" stroke-linejoin="round" stroke-width="1"/>
      </g>
      <g id="Line_14">
        <path d="M 771.5 379.25 L 800 379.25 C 803.3137 379.25 806 381.9363 806 385.25 L 806 574 C 806 577.3137 808.6863 580 812 580 L 997.1 580 C 1000.4137 580 1003.1 577.3137 1003.1 574 L 1003.1 539.25 C 1003.1 535.9363 1005.7863 533.25 1009.1 533.25 L 1014.1 533.25" marker-end="url(#FilledArrow_Marker)" stroke="black" stroke-linecap="round" stroke-linejoin="round" stroke-width="1"/>
      </g>
      <g id="Line_15">
        <line x1="973.5" y1="533.25" x2="1014.1" y2="533.25" marker-end="url(#FilledArrow_Marker)" stroke="black" stroke-linecap="round" stroke-linejoin="round" stroke-width="1"/>
      </g>
      <g id="Line_16">
        <path d="M 973.5 456.25 L 1042.25 456.25 C 1045.5637 456.25 1048.25 458.9363 1048.25 462.25 L 1048.25 499.1" marker-end="url(#FilledArrow_Marker)" stroke="black" stroke-linecap="round" stroke-linejoin="round" stroke-width="1"/>
      </g>
      <g id="Line_17">
        <path d="M 973.5 379.25 L 1042.25 379.25 C 1045.5637 379.25 1048.25 381.9363 1048.25 385.25 L 1048.25 499.1" marker-end="url(#FilledArrow_Marker)" stroke="black" stroke-linecap="round" stroke-linejoin="round" stroke-width="1"/>
      </g>
      <g id="Line_18">
        <path d="M 1048.25 557.5 L 1048.25 607.3281 C 1048.25 610.6418 1045.5637 613.3281 1042.25 613.3281 L 606.0014 613.3281 C 602.6877 613.3281 600.0014 610.6418 600.0014 607.3281 L 600.0014 385.25 C 600.0014 381.9363 602.6877 379.25 606.0014 379.25 L 630.6 379.25" marker-end="url(#FilledArrow_Marker)" stroke="black" stroke-linecap="round" stroke-linejoin="round" stroke-width="1"/>
      </g>
      <g id="Graphic_19">
        <path d="M 1316 481 L 1405 481 C 1416.598 481 1426 490.402 1426 502 L 1426 564 C 1426 575.598 1416.598 585 1405 585 L 1316 585 C 1304.402 585 1295 575.598 1295 564 L 1295 502 C 1295 490.402 1304.402 481 1316 481 Z" fill="white"/>
        <path d="M 1316 481 L 1405 481 C 1416.598 481 1426 490.402 1426 502 L 1426 564 C 1426 575.598 1416.598 585 1405 585 L 1316 585 C 1304.402 585 1295 575.598 1295 564 L 1295 502 C 1295 490.402 1304.402 481 1316 481 Z" stroke="gray" stroke-linecap="round" stroke-linejoin="round" stroke-width="1"/>
        <text transform="translate(1300 523.776)" fill="black">
          <tspan font-family="Helvetica Neue" font-size="16" fill="black" x="28.052" y="15">compile()</tspan>
        </text>
      </g>
      <g id="Line_20">
        <path d="M 1072.5 533.25 L 1083.4963 533.25 C 1083.4988 533.25 1083.5012 533.25 1083.5037 533.25 L 1183.7496 533.125 C 1183.7499 533.125 1183.7501 533.125 1183.7504 533.125 L 1274.0958 533 C 1274.0986 533 1274.1014 533 1274.1042 533 L 1285.1 533" marker-end="url(#FilledArrow_Marker)" stroke="black" stroke-linecap="round" stroke-linejoin="round" stroke-width="1"/>
      </g>
      <g id="Graphic_21">
        <path d="M 1514 355 L 1603 355 C 1614.598 355 1624 364.402 1624 376 L 1624 382.5 C 1624 394.098 1614.598 403.5 1603 403.5 L 1514 403.5 C 1502.402 403.5 1493 394.098 1493 382.5 L 1493 376 C 1493 364.402 1502.402 355 1514 355 Z" fill="white"/>
        <path d="M 1514 355 L 1603 355 C 1614.598 355 1624 364.402 1624 376 L 1624 382.5 C 1624 394.098 1614.598 403.5 1603 403.5 L 1514 403.5 C 1502.402 403.5 1493 394.098 1493 382.5 L 1493 376 C 1493 364.402 1502.402 355 1514 355 Z" stroke="gray" stroke-linecap="round" stroke-linejoin="round" stroke-width="1"/>
        <text transform="translate(1498 370.026)" fill="black">
          <tspan font-family="Helvetica Neue" font-size="16" fill="black" x="32.948" y="15">load(…)</tspan>
        </text>
      </g>
      <g id="Graphic_22">
        <path d="M 1514 432 L 1603 432 C 1614.598 432 1624 441.402 1624 453 L 1624 459.5 C 1624 471.098 1614.598 480.5 1603 480.5 L 1514 480.5 C 1502.402 480.5 1493 471.098 1493 459.5 L 1493 453 C 1493 441.402 1502.402 432 1514 432 Z" fill="#ccc"/>
        <path d="M 1514 432 L 1603 432 C 1614.598 432 1624 441.402 1624 453 L 1624 459.5 C 1624 471.098 1614.598 480.5 1603 480.5 L 1514 480.5 C 1502.402 480.5 1493 471.098 1493 459.5 L 1493 453 C 1493 441.402 1502.402 432 1514 432 Z" stroke="gray" stroke-linecap="round" stroke-linejoin="round" stroke-width="1"/>
        <text transform="translate(1498 447.026)" fill="white">
          <tspan font-family="Helvetica Neue" font-size="16" fill="white" x="44.948" y="15">get()</tspan>
        </text>
      </g>
      <g id="Graphic_23">
        <path d="M 1514 509 L 1603 509 C 1614.598 509 1624 518.402 1624 530 L 1624 536.5 C 1624 548.098 1614.598 557.5 1603 557.5 L 1514 557.5 C 1502.402 557.5 1493 548.098 1493 536.5 L 1493 530 C 1493 518.402 1502.402 509 1514 509 Z" fill="#ccc"/>
        <path d="M 1514 509 L 1603 509 C 1614.598 509 1624 518.402 1624 530 L 1624 536.5 C 1624 548.098 1614.598 557.5 1603 557.5 L 1514 557.5 C 1502.402 557.5 1493 548.098 1493 536.5 L 1493 530 C 1493 518.402 1502.402 509 1514 509 Z" stroke="gray" stroke-linecap="round" stroke-linejoin="round" stroke-width="1"/>
        <text transform="translate(1498 524.026)" fill="white">
          <tspan font-family="Helvetica Neue" font-size="16" fill="white" x="31.468" y="15">saveTo()</tspan>
        </text>
      </g>
      <g id="Graphic_24">
        <path d="M 1514 586 L 1603 586 C 1614.598 586 1624 595.402 1624 607 L 1624 613.5 C 1624 625.098 1614.598 634.5 1603 634.5 L 1514 634.5 C 1502.402 634.5 1493 625.098 1493 613.5 L 1493 607 C 1493 595.402 1502.402 586 1514 586 Z" fill="#ccc"/>
        <path d="M 1514 586 L 1603 586 C 1614.598 586 1624 595.402 1624 607 L 1624 613.5 C 1624 625.098 1614.598 634.5 1603 634.5 L 1514 634.5 C 1502.402 634.5 1493 625.098 1493 613.5 L 1493 607 C 1493 595.402 1502.402 586 1514 586 Z" stroke="gray" stroke-linecap="round" stroke-linejoin="round" stroke-width="1"/>
        <text transform="translate(1498 601.026)" fill="white">
          <tspan font-family="Helvetica Neue" font-size="16" fill="white" x="31.9" y="15">stream()</tspan>
        </text>
      </g>
      <g id="Line_25">
        <path d="M 1426 533 L 1431.4833 533 L 1448.4019 533.06334 C 1459.1695 529.32946 1459.4936 528.2652 1459.4999 527.1249 C 1459.5 527.1138 1459.5 527.1027 1459.5 527.0916 L 1459.5 385.25 C 1459.5 381.9363 1462.1863 379.25 1465.5 379.25 L 1473.2 379.25" marker-end="url(#FilledArrow_Marker)" stroke="black" stroke-linecap="round" stroke-linejoin="round" stroke-width="1"/>
      </g>
      <g id="Line_26">
        <path d="M 1426 533 L 1431.4833 533 L 1448.4019 533.06334 C 1459.1695 529.32946 1459.4936 528.2652 1459.4999 527.1249 C 1459.5 527.1138 1459.5 527.1027 1459.5 527.0916 L 1459.5 462.25 C 1459.5 458.9363 1462.1863 456.25 1465.5 456.25 L 1473.2 456.25" marker-end="url(#FilledArrow_Marker)" stroke="black" stroke-linecap="round" stroke-linejoin="round" stroke-width="1"/>
      </g>
      <g id="Line_27">
        <path d="M 1426 533 L 1431.4833 533 L 1448.4958 533.06387 C 1459.5009 533.125 1459.507 533.1251 1459.5131 533.1251 L 1472.0702 533.2497 C 1472.09 533.2499 1472.11 533.25 1472.1298 533.25 L 1473.2 533.25" marker-end="url(#FilledArrow_Marker)" stroke="black" stroke-linecap="round" stroke-linejoin="round" stroke-width="1"/>
      </g>
      <g id="Line_28">
        <path d="M 1426 533 L 1431.4833 533 L 1448.6749 533.06486 C 1459.2278 537.0458 1459.5 538.0371 1459.5 539.09176 L 1459.5 604.25 C 1459.5 607.5637 1462.1863 610.25 1465.5 610.25 L 1473.2 610.25" marker-end="url(#FilledArrow_Marker)" stroke="black" stroke-linecap="round" stroke-linejoin="round" stroke-width="1"/>
      </g>
      <g id="Graphic_30">
        <path d="M 1712 355 L 1801 355 C 1812.598 355 1822 364.402 1822 376 L 1822 382.5 C 1822 394.098 1812.598 403.5 1801 403.5 L 1712 403.5 C 1700.402 403.5 1691 394.098 1691 382.5 L 1691 376 C 1691 364.402 1700.402 355 1712 355 Z" fill="#ccc"/>
        <path d="M 1712 355 L 1801 355 C 1812.598 355 1822 364.402 1822 376 L 1822 382.5 C 1822 394.098 1812.598 403.5 1801 403.5 L 1712 403.5 C 1700.402 403.5 1691 394.098 1691 382.5 L 1691 376 C 1691 364.402 1700.402 355 1712 355 Z" stroke="gray" stroke-linecap="round" stroke-linejoin="round" stroke-width="1"/>
        <text transform="translate(1696 370.026)" fill="white">
          <tspan font-family="Helvetica Neue" font-size="16" fill="white" x="36.948" y="15">get(…)</tspan>
        </text>
      </g>
      <g id="Graphic_33">
        <path d="M 1712 432 L 1801 432 C 1812.598 432 1822 441.402 1822 453 L 1822 459.5 C 1822 471.098 1812.598 480.5 1801 480.5 L 1712 480.5 C 1700.402 480.5 1691 471.098 1691 459.5 L 1691 453 C 1691 441.402 1700.402 432 1712 432 Z" fill="#ccc"/>
        <path d="M 1712 432 L 1801 432 C 1812.598 432 1822 441.402 1822 453 L 1822 459.5 C 1822 471.098 1812.598 480.5 1801 480.5 L 1712 480.5 C 1700.402 480.5 1691 471.098 1691 459.5 L 1691 453 C 1691 441.402 1700.402 432 1712 432 Z" stroke="gray" stroke-linecap="round" stroke-linejoin="round" stroke-width="1"/>
        <text transform="translate(1696 447.026)" fill="white">
          <tspan font-family="Helvetica Neue" font-size="16" fill="white" x="3.172" y="15">newInstance(…)</tspan>
        </text>
      </g>
      <g id="Graphic_34">
        <path d="M 1712 509 L 1801 509 C 1812.598 509 1822 518.402 1822 530 L 1822 536.5 C 1822 548.098 1812.598 557.5 1801 557.5 L 1712 557.5 C 1700.402 557.5 1691 548.098 1691 536.5 L 1691 530 C 1691 518.402 1700.402 509 1712 509 Z" fill="#ccc"/>
        <path d="M 1712 509 L 1801 509 C 1812.598 509 1822 518.402 1822 530 L 1822 536.5 C 1822 548.098 1812.598 557.5 1801 557.5 L 1712 557.5 C 1700.402 557.5 1691 548.098 1691 536.5 L 1691 530 C 1691 518.402 1700.402 509 1712 509 Z" stroke="gray" stroke-linecap="round" stroke-linejoin="round" stroke-width="1"/>
        <text transform="translate(1696 524.026)" fill="white">
          <tspan font-family="Helvetica Neue" font-size="16" fill="white" x="23.9" y="15">stream(…)</tspan>
        </text>
      </g>
      <g id="Graphic_35">
        <path d="M 1712 586 L 1801 586 C 1812.598 586 1822 595.402 1822 607 L 1822 613.5 C 1822 625.098 1812.598 634.5 1801 634.5 L 1712 634.5 C 1700.402 634.5 1691 625.098 1691 613.5 L 1691 607 C 1691 595.402 1700.402 586 1712 586 Z" fill="white"/>
        <path d="M 1712 586 L 1801 586 C 1812.598 586 1822 595.402 1822 607 L 1822 613.5 C 1822 625.098 1812.598 634.5 1801 634.5 L 1712 634.5 C 1700.402 634.5 1691 625.098 1691 613.5 L 1691 607 C 1691 595.402 1700.402 586 1712 586 Z" stroke="gray" stroke-linecap="round" stroke-linejoin="round" stroke-width="1"/>
        <text transform="translate(1696 601.026)" fill="black">
          <tspan font-family="Helvetica Neue" font-size="16" fill="black" x="30.724" y="15">reset(…)</tspan>
        </text>
      </g>
      <g id="Line_36">
        <path d="M 1426 533 L 1452.9297 533 C 1456.2434 533 1458.9297 535.6863 1458.9297 539 L 1458.9297 654.08984 C 1458.9297 657.40355 1461.616 660.08984 1464.9297 660.08984 L 1664.1 660.08984 C 1667.4137 660.08984 1670.1 657.40355 1670.1 654.08984 L 1670.1 616.25 C 1670.1 612.9363 1672.7863 610.25 1676.1 610.25 L 1681.1 610.25" marker-end="url(#FilledArrow_Marker)" stroke="black" stroke-linecap="round" stroke-linejoin="round" stroke-width="1"/>
      </g>
      <g id="Line_37">
        <line x1="1624" y1="379.25" x2="1681.1" y2="379.25" marker-end="url(#FilledArrow_Marker)" stroke="black" stroke-linecap="round" stroke-linejoin="round" stroke-width="1"/>
      </g>
      <g id="Line_38">
        <path d="M 1624 379.25 L 1651.5 379.25 C 1654.8137 379.25 1657.5 381.9363 1657.5 385.25 L 1657.5 450.25 C 1657.5 453.5637 1660.1863 456.25 1663.5 456.25 L 1681.1 456.25" marker-end="url(#FilledArrow_Marker)" stroke="black" stroke-linecap="round" stroke-linejoin="round" stroke-width="1"/>
      </g>
      <g id="Line_39">
        <path d="M 1624 379.25 L 1651.5 379.25 C 1654.8137 379.25 1657.5 381.9363 1657.5 385.25 L 1657.5 527.25 C 1657.5 530.5637 1660.1863 533.25 1663.5 533.25 L 1681.1 533.25" marker-end="url(#FilledArrow_Marker)" stroke="black" stroke-linecap="round" stroke-linejoin="round" stroke-width="1"/>
      </g>
      <g id="Line_40">
        <path d="M 1624 379.25 L 1651.5 379.25 C 1654.8137 379.25 1657.5 381.9363 1657.5 385.25 L 1657.5 604.25 C 1657.5 607.5637 1660.1863 610.25 1663.5 610.25 L 1681.1 610.25" marker-end="url(#FilledArrow_Marker)" stroke="black" stroke-linecap="round" stroke-linejoin="round" stroke-width="1"/>
      </g>
      <g id="Line_42">
        <path d="M 1822 610.25 L 1827 610.25 C 1830.3137 610.25 1833 612.9363 1833 616.25 L 1833 660.3265 C 1833 663.6402 1830.3137 666.3265 1827 666.3265 L 604.9796 666.3265 C 601.6659 666.3265 598.9796 663.6402 598.9796 660.3265 L 598.9796 385.25 C 598.9796 381.9363 601.6659 379.25 604.9796 379.25 L 630.6 379.25" marker-end="url(#FilledArrow_Marker)" stroke="black" stroke-linecap="round" stroke-linejoin="round" stroke-width="1"/>
      </g>
      <g id="Graphic_43">
        <path d="M 1131 423 L 1264 423 C 1275.598 423 1285 432.402 1285 444 L 1285 450.5 C 1285 462.098 1275.598 471.5 1264 471.5 L 1131 471.5 C 1119.402 471.5 1110 462.098 1110 450.5 L 1110 444 C 1110 432.402 1119.402 423 1131 423 Z" fill="white"/>
        <path d="M 1131 423 L 1264 423 C 1275.598 423 1285 432.402 1285 444 L 1285 450.5 C 1285 462.098 1275.598 471.5 1264 471.5 L 1131 471.5 C 1119.402 471.5 1110 462.098 1110 450.5 L 1110 444 C 1110 432.402 1119.402 423 1131 423 Z" stroke="gray" stroke-linecap="round" stroke-linejoin="round" stroke-width="1"/>
        <text transform="translate(1115 438.026)" fill="black">
          <tspan font-family="Helvetica Neue" font-size="16" fill="black" x="39.236" y="15">options( … )</tspan>
        </text>
      </g>
      <g id="Graphic_44">
        <path d="M 1131 344 L 1264 344 C 1275.598 344 1285 353.402 1285 365 L 1285 371.5 C 1285 383.098 1275.598 392.5 1264 392.5 L 1131 392.5 C 1119.402 392.5 1110 383.098 1110 371.5 L 1110 365 C 1110 353.402 1119.402 344 1131 344 Z" fill="white"/>
        <path d="M 1131 344 L 1264 344 C 1275.598 344 1285 353.402 1285 365 L 1285 371.5 C 1285 383.098 1275.598 392.5 1264 392.5 L 1131 392.5 C 1119.402 392.5 1110 383.098 1110 371.5 L 1110 365 C 1110 353.402 1119.402 344 1131 344 Z" stroke="gray" stroke-linecap="round" stroke-linejoin="round" stroke-width="1"/>
        <text transform="translate(1115 359.026)" fill="black">
          <tspan font-family="Helvetica Neue" font-size="16" fill="black" x="1.604" y="15">annotatedClasses( … )</tspan>
        </text>
      </g>
      <g id="Line_45">
        <line x1="1061.139" y1="512.70515" x2="1106.828" y2="377.62806" marker-end="url(#FilledArrow_Marker)" stroke="black" stroke-linecap="round" stroke-linejoin="round" stroke-width="1"/>
      </g>
      <g id="Line_46">
        <line x1="1061.7429" y1="513.0974" x2="1104.148" y2="455.2352" marker-end="url(#FilledArrow_Marker)" stroke="black" stroke-linecap="round" stroke-linejoin="round" stroke-width="1"/>
      </g>
      <g id="Line_47">
        <path d="M 1285 368.25 L 1290 368.25 C 1290.9629 368.25 1291.8727 368.0232 1292.6791 367.6201 L 1296 337.17427 C 1296 333.86056 1293.3137 331.17427 1290 331.17427 L 1054.25 331.17427 C 1050.9363 331.17427 1048.25 333.86056 1048.25 337.17427 L 1048.25 489.2" marker-end="url(#FilledArrow_Marker)" stroke="black" stroke-linecap="round" stroke-linejoin="round" stroke-width="1"/>
      </g>
      <g id="Line_48">
        <path d="M 1285 447.25 L 1289.9285 447.25 C 1293.2422 447.25 1295.9285 444.5637 1295.9285 441.25 L 1295.9285 337.79253 C 1295.9285 334.47883 1293.2422 331.79253 1289.9285 331.79253 L 1054.25 331.79253 C 1050.9363 331.79253 1048.25 334.47883 1048.25 337.79253 L 1048.25 499.1" marker-end="url(#FilledArrow_Marker)" stroke="black" stroke-linecap="round" stroke-linejoin="round" stroke-width="1"/>
      </g>
    </g>
  </g>
</svg>
