<?xml version="1.0" encoding="UTF-8" standalone="no"?>
<!DOCTYPE svg PUBLIC "-//W3C//DTD SVG 1.1//EN" "http://www.w3.org/Graphics/SVG/1.1/DTD/svg11.dtd">
<svg version="1.1" xmlns:xl="http://www.w3.org/1999/xlink" xmlns="http://www.w3.org/2000/svg" xmlns:dc="http://purl.org/dc/elements/1.1/" viewBox="438 354 1222 406" width="1222" height="406">
  <defs>
    <marker orient="auto" overflow="visible" markerUnits="strokeWidth" id="FilledArrow_Marker" stroke-linejoin="miter" stroke-miterlimit="10" viewBox="-1 -4 10 8" markerWidth="10" markerHeight="8" color="black">
      <g>
        <path d="M 8 0 L 0 -3 L 0 3 Z" fill="currentColor" stroke="currentColor" stroke-width="1"/>
      </g>
    </marker>
  </defs>
  <g id="fluent" stroke-opacity="1" stroke-dasharray="none" fill="none" stroke="none" fill-opacity="1">
    <title>fluent</title>
    <rect fill="white" x="438" y="354" width="1222" height="406"/>
    <g id="fluent_Layer_1">
      <title>Layer 1</title>
      <g id="Graphic_3">
        <path d="M 459.5 355 L 548.5 355 C 560.098 355 569.5 364.402 569.5 376 L 569.5 382.5 C 569.5 394.098 560.098 403.5 548.5 403.5 L 459.5 403.5 C 447.902 403.5 438.5 394.098 438.5 382.5 L 438.5 376 C 438.5 364.402 447.902 355 459.5 355 Z" fill="white"/>
        <path d="M 459.5 355 L 548.5 355 C 560.098 355 569.5 364.402 569.5 376 L 569.5 382.5 C 569.5 394.098 560.098 403.5 548.5 403.5 L 459.5 403.5 C 447.902 403.5 438.5 394.098 438.5 382.5 L 438.5 376 C 438.5 364.402 447.902 355 459.5 355 Z" stroke="gray" stroke-linecap="round" stroke-linejoin="round" stroke-width="1"/>
        <text transform="translate(443.5 370.026)" fill="black">
          <tspan font-family="Helvetica Neue" font-size="16" fill="black" x="8.052" y="15">Compiler.java()</tspan>
        </text>
      </g>
      <g id="Graphic_4">
        <path d="M 661.5 355 L 750.5 355 C 762.098 355 771.5 364.402 771.5 376 L 771.5 382.5 C 771.5 394.098 762.098 403.5 750.5 403.5 L 661.5 403.5 C 649.902 403.5 640.5 394.098 640.5 382.5 L 640.5 376 C 640.5 364.402 649.902 355 661.5 355 Z" fill="white"/>
        <path d="M 661.5 355 L 750.5 355 C 762.098 355 771.5 364.402 771.5 376 L 771.5 382.5 C 771.5 394.098 762.098 403.5 750.5 403.5 L 661.5 403.5 C 649.902 403.5 640.5 394.098 640.5 382.5 L 640.5 376 C 640.5 364.402 649.902 355 661.5 355 Z" stroke="gray" stroke-linecap="round" stroke-linejoin="round" stroke-width="1"/>
        <text transform="translate(645.5 370.026)" fill="black">
          <tspan font-family="Helvetica Neue" font-size="16" fill="black" x="27.604" y="15">from( … )</tspan>
        </text>
      </g>
      <g id="Graphic_5">
        <path d="M 863.5 355 L 952.5 355 C 964.098 355 973.5 364.402 973.5 376 L 973.5 382.5 C 973.5 394.098 964.098 403.5 952.5 403.5 L 863.5 403.5 C 851.902 403.5 842.5 394.098 842.5 382.5 L 842.5 376 C 842.5 364.402 851.902 355 863.5 355 Z" fill="white"/>
        <path d="M 863.5 355 L 952.5 355 C 964.098 355 973.5 364.402 973.5 376 L 973.5 382.5 C 973.5 394.098 964.098 403.5 952.5 403.5 L 863.5 403.5 C 851.902 403.5 842.5 394.098 842.5 382.5 L 842.5 376 C 842.5 364.402 851.902 355 863.5 355 Z" stroke="gray" stroke-linecap="round" stroke-linejoin="round" stroke-width="1"/>
        <text transform="translate(847.5 370.026)" fill="black">
          <tspan font-family="Helvetica Neue" font-size="16" fill="black" x="19.452" y="15">hidden( … )</tspan>
        </text>
      </g>
      <g id="Graphic_6">
        <path d="M 863.5 432 L 952.5 432 C 964.098 432 973.5 441.402 973.5 453 L 973.5 459.5 C 973.5 471.098 964.098 480.5 952.5 480.5 L 863.5 480.5 C 851.902 480.5 842.5 471.098 842.5 459.5 L 842.5 453 C 842.5 441.402 851.902 432 863.5 432 Z" fill="white"/>
        <path d="M 863.5 432 L 952.5 432 C 964.098 432 973.5 441.402 973.5 453 L 973.5 459.5 C 973.5 471.098 964.098 480.5 952.5 480.5 L 863.5 480.5 C 851.902 480.5 842.5 471.098 842.5 459.5 L 842.5 453 C 842.5 441.402 851.902 432 863.5 432 Z" stroke="gray" stroke-linecap="round" stroke-linejoin="round" stroke-width="1"/>
        <text transform="translate(847.5 447.026)" fill="black">
          <tspan font-family="Helvetica Neue" font-size="16" fill="black" x="19.3" y="15">named( … )</tspan>
        </text>
      </g>
      <g id="Graphic_7">
        <path d="M 863.5 509 L 952.5 509 C 964.098 509 973.5 518.402 973.5 530 L 973.5 536.5 C 973.5 548.098 964.098 557.5 952.5 557.5 L 863.5 557.5 C 851.902 557.5 842.5 548.098 842.5 536.5 L 842.5 530 C 842.5 518.402 851.902 509 863.5 509 Z" fill="white"/>
        <path d="M 863.5 509 L 952.5 509 C 964.098 509 973.5 518.402 973.5 530 L 973.5 536.5 C 973.5 548.098 964.098 557.5 952.5 557.5 L 863.5 557.5 C 851.902 557.5 842.5 548.098 842.5 536.5 L 842.5 530 C 842.5 518.402 851.902 509 863.5 509 Z" stroke="gray" stroke-linecap="round" stroke-linejoin="round" stroke-width="1"/>
        <text transform="translate(847.5 524.026)" fill="black">
          <tspan font-family="Helvetica Neue" font-size="16" fill="black" x="28.644" y="15">nest( … )</tspan>
        </text>
      </g>
      <g id="Line_8">
        <line x1="569.5" y1="379.25" x2="630.6" y2="379.25" marker-end="url(#FilledArrow_Marker)" stroke="black" stroke-linecap="round" stroke-linejoin="round" stroke-width="1"/>
      </g>
      <g id="Line_9">
        <line x1="771.5" y1="379.25" x2="832.6" y2="379.25" marker-end="url(#FilledArrow_Marker)" stroke="black" stroke-linecap="round" stroke-linejoin="round" stroke-width="1"/>
      </g>
      <g id="Line_10">
        <path d="M 771.5 379.25 L 801 379.25 C 804.3137 379.25 807 381.9363 807 385.25 L 807 450.25 C 807 453.5637 809.6863 456.25 813 456.25 L 832.6 456.25" marker-end="url(#FilledArrow_Marker)" stroke="black" stroke-linecap="round" stroke-linejoin="round" stroke-width="1"/>
      </g>
      <g id="Line_11">
        <path d="M 771.5 379.25 L 800.8867 379.25 C 804.2004 379.25 806.8867 381.9363 806.8867 385.25 L 806.8867 527.25 C 806.8867 530.5637 809.573 533.25 812.8867 533.25 L 832.6 533.25" marker-end="url(#FilledArrow_Marker)" stroke="black" stroke-linecap="round" stroke-linejoin="round" stroke-width="1"/>
      </g>
      <g id="Graphic_13">
        <path d="M 1048.25 509 L 1048.25 509 C 1061.6429 509 1072.5 519.8571 1072.5 533.25 L 1072.5 533.25 C 1072.5 546.6429 1061.6429 557.5 1048.25 557.5 L 1048.25 557.5 C 1034.8571 557.5 1024 546.6429 1024 533.25 L 1024 533.25 C 1024 519.8571 1034.8571 509 1048.25 509 Z" fill="white"/>
        <path d="M 1048.25 509 L 1048.25 509 C 1061.6429 509 1072.5 519.8571 1072.5 533.25 L 1072.5 533.25 C 1072.5 546.6429 1061.6429 557.5 1048.25 557.5 L 1048.25 557.5 C 1034.8571 557.5 1024 546.6429 1024 533.25 L 1024 533.25 C 1024 519.8571 1034.8571 509 1048.25 509 Z" stroke="gray" stroke-linecap="round" stroke-linejoin="round" stroke-width="1"/>
      </g>
      <g id="Line_14">
        <path d="M 771.5 379.25 L 800 379.25 C 803.3137 379.25 806 381.9363 806 385.25 L 806 574 C 806 577.3137 808.6863 580 812 580 L 997.1 580 C 1000.4137 580 1003.1 577.3137 1003.1 574 L 1003.1 539.25 C 1003.1 535.9363 1005.7863 533.25 1009.1 533.25 L 1014.1 533.25" marker-end="url(#FilledArrow_Marker)" stroke="black" stroke-linecap="round" stroke-linejoin="round" stroke-width="1"/>
      </g>
      <g id="Line_15">
        <line x1="973.5" y1="533.25" x2="1014.1" y2="533.25" marker-end="url(#FilledArrow_Marker)" stroke="black" stroke-linecap="round" stroke-linejoin="round" stroke-width="1"/>
      </g>
      <g id="Line_16">
        <path d="M 973.5 456.25 L 1042.25 456.25 C 1045.5637 456.25 1048.25 458.9363 1048.25 462.25 L 1048.25 499.1" marker-end="url(#FilledArrow_Marker)" stroke="black" stroke-linecap="round" stroke-linejoin="round" stroke-width="1"/>
      </g>
      <g id="Line_17">
        <path d="M 973.5 379.25 L 1042.25 379.25 C 1045.5637 379.25 1048.25 381.9363 1048.25 385.25 L 1048.25 499.1" marker-end="url(#FilledArrow_Marker)" stroke="black" stroke-linecap="round" stroke-linejoin="round" stroke-width="1"/>
      </g>
      <g id="Line_18">
        <path d="M 1048.25 557.5 L 1048.25 607.3281 C 1048.25 610.6418 1045.5637 613.3281 1042.25 613.3281 L 606.0014 613.3281 C 602.6877 613.3281 600.0014 610.6418 600.0014 607.3281 L 600.0014 385.25 C 600.0014 384.0284 600.36646 382.89204 600.9935 381.9441 L 620.7 379.25" marker-end="url(#FilledArrow_Marker)" stroke="black" stroke-linecap="round" stroke-linejoin="round" stroke-width="1"/>
      </g>
      <g id="Graphic_19">
        <path d="M 1138 509 L 1227 509 C 1238.598 509 1248 518.402 1248 530 L 1248 536.5 C 1248 548.098 1238.598 557.5 1227 557.5 L 1138 557.5 C 1126.402 557.5 1117 548.098 1117 536.5 L 1117 530 C 1117 518.402 1126.402 509 1138 509 Z" fill="white"/>
        <path d="M 1138 509 L 1227 509 C 1238.598 509 1248 518.402 1248 530 L 1248 536.5 C 1248 548.098 1238.598 557.5 1227 557.5 L 1138 557.5 C 1126.402 557.5 1117 548.098 1117 536.5 L 1117 530 C 1117 518.402 1126.402 509 1138 509 Z" stroke="gray" stroke-linecap="round" stroke-linejoin="round" stroke-width="1"/>
        <text transform="translate(1122 524.026)" fill="black">
          <tspan font-family="Helvetica Neue" font-size="16" fill="black" x="28.052" y="15">compile()</tspan>
        </text>
      </g>
      <g id="Line_20">
        <line x1="1072.5" y1="533.25" x2="1107.1" y2="533.25" marker-end="url(#FilledArrow_Marker)" stroke="black" stroke-linecap="round" stroke-linejoin="round" stroke-width="1"/>
      </g>
      <g id="Graphic_21">
        <path d="M 1335 355 L 1424 355 C 1435.598 355 1445 364.402 1445 376 L 1445 382.5 C 1445 394.098 1435.598 403.5 1424 403.5 L 1335 403.5 C 1323.402 403.5 1314 394.098 1314 382.5 L 1314 376 C 1314 364.402 1323.402 355 1335 355 Z" fill="white"/>
        <path d="M 1335 355 L 1424 355 C 1435.598 355 1445 364.402 1445 376 L 1445 382.5 C 1445 394.098 1435.598 403.5 1424 403.5 L 1335 403.5 C 1323.402 403.5 1314 394.098 1314 382.5 L 1314 376 C 1314 364.402 1323.402 355 1335 355 Z" stroke="gray" stroke-linecap="round" stroke-linejoin="round" stroke-width="1"/>
        <text transform="translate(1319 370.026)" fill="black">
          <tspan font-family="Helvetica Neue" font-size="16" fill="black" x="32.948" y="15">load(…)</tspan>
        </text>
      </g>
      <g id="Graphic_22">
        <path d="M 1335 432 L 1424 432 C 1435.598 432 1445 441.402 1445 453 L 1445 459.5 C 1445 471.098 1435.598 480.5 1424 480.5 L 1335 480.5 C 1323.402 480.5 1314 471.098 1314 459.5 L 1314 453 C 1314 441.402 1323.402 432 1335 432 Z" fill="#ccc"/>
        <path d="M 1335 432 L 1424 432 C 1435.598 432 1445 441.402 1445 453 L 1445 459.5 C 1445 471.098 1435.598 480.5 1424 480.5 L 1335 480.5 C 1323.402 480.5 1314 471.098 1314 459.5 L 1314 453 C 1314 441.402 1323.402 432 1335 432 Z" stroke="gray" stroke-linecap="round" stroke-linejoin="round" stroke-width="1"/>
        <text transform="translate(1319 447.026)" fill="white">
          <tspan font-family="Helvetica Neue" font-size="16" fill="white" x="44.948" y="15">get()</tspan>
        </text>
      </g>
      <g id="Graphic_23">
        <path d="M 1335 509 L 1424 509 C 1435.598 509 1445 518.402 1445 530 L 1445 536.5 C 1445 548.098 1435.598 557.5 1424 557.5 L 1335 557.5 C 1323.402 557.5 1314 548.098 1314 536.5 L 1314 530 C 1314 518.402 1323.402 509 1335 509 Z" fill="#ccc"/>
        <path d="M 1335 509 L 1424 509 C 1435.598 509 1445 518.402 1445 530 L 1445 536.5 C 1445 548.098 1435.598 557.5 1424 557.5 L 1335 557.5 C 1323.402 557.5 1314 548.098 1314 536.5 L 1314 530 C 1314 518.402 1323.402 509 1335 509 Z" stroke="gray" stroke-linecap="round" stroke-linejoin="round" stroke-width="1"/>
        <text transform="translate(1319 524.026)" fill="white">
          <tspan font-family="Helvetica Neue" font-size="16" fill="white" x="31.468" y="15">saveTo()</tspan>
        </text>
      </g>
      <g id="Graphic_24">
        <path d="M 1335 586 L 1424 586 C 1435.598 586 1445 595.402 1445 607 L 1445 613.5 C 1445 625.098 1435.598 634.5 1424 634.5 L 1335 634.5 C 1323.402 634.5 1314 625.098 1314 613.5 L 1314 607 C 1314 595.402 1323.402 586 1335 586 Z" fill="#ccc"/>
        <path d="M 1335 586 L 1424 586 C 1435.598 586 1445 595.402 1445 607 L 1445 613.5 C 1445 625.098 1435.598 634.5 1424 634.5 L 1335 634.5 C 1323.402 634.5 1314 625.098 1314 613.5 L 1314 607 C 1314 595.402 1323.402 586 1335 586 Z" stroke="gray" stroke-linecap="round" stroke-linejoin="round" stroke-width="1"/>
        <text transform="translate(1319 601.026)" fill="white">
          <tspan font-family="Helvetica Neue" font-size="16" fill="white" x="31.9" y="15">stream()</tspan>
        </text>
      </g>
      <g id="Line_25">
        <path d="M 1248 533.25 L 1274.5 533.25 C 1277.8137 533.25 1280.5 530.5637 1280.5 527.25 L 1280.5 385.25 C 1280.5 381.9363 1283.1863 379.25 1286.5 379.25 L 1304.1 379.25" marker-end="url(#FilledArrow_Marker)" stroke="black" stroke-linecap="round" stroke-linejoin="round" stroke-width="1"/>
      </g>
      <g id="Line_26">
        <path d="M 1248 533.25 L 1274.5 533.25 C 1277.8137 533.25 1280.5 530.5637 1280.5 527.25 L 1280.5 462.25 C 1280.5 458.9363 1283.1863 456.25 1286.5 456.25 L 1304.1 456.25" marker-end="url(#FilledArrow_Marker)" stroke="black" stroke-linecap="round" stroke-linejoin="round" stroke-width="1"/>
      </g>
      <g id="Line_27">
        <line x1="1248" y1="533.25" x2="1304.1" y2="533.25" marker-end="url(#FilledArrow_Marker)" stroke="black" stroke-linecap="round" stroke-linejoin="round" stroke-width="1"/>
      </g>
      <g id="Line_28">
        <path d="M 1248 533.25 L 1274.5 533.25 C 1277.8137 533.25 1280.5 535.9363 1280.5 539.25 L 1280.5 604.25 C 1280.5 607.5637 1283.1863 610.25 1286.5 610.25 L 1304.1 610.25" marker-end="url(#FilledArrow_Marker)" stroke="black" stroke-linecap="round" stroke-linejoin="round" stroke-width="1"/>
      </g>
      <g id="Graphic_30">
        <path d="M 1533 355 L 1622 355 C 1633.598 355 1643 364.402 1643 376 L 1643 382.5 C 1643 394.098 1633.598 403.5 1622 403.5 L 1533 403.5 C 1521.402 403.5 1512 394.098 1512 382.5 L 1512 376 C 1512 364.402 1521.402 355 1533 355 Z" fill="#ccc"/>
        <path d="M 1533 355 L 1622 355 C 1633.598 355 1643 364.402 1643 376 L 1643 382.5 C 1643 394.098 1633.598 403.5 1622 403.5 L 1533 403.5 C 1521.402 403.5 1512 394.098 1512 382.5 L 1512 376 C 1512 364.402 1521.402 355 1533 355 Z" stroke="gray" stroke-linecap="round" stroke-linejoin="round" stroke-width="1"/>
        <text transform="translate(1517 370.026)" fill="white">
          <tspan font-family="Helvetica Neue" font-size="16" fill="white" x="36.948" y="15">get(…)</tspan>
        </text>
      </g>
      <g id="Graphic_33">
        <path d="M 1533 432 L 1622 432 C 1633.598 432 1643 441.402 1643 453 L 1643 459.5 C 1643 471.098 1633.598 480.5 1622 480.5 L 1533 480.5 C 1521.402 480.5 1512 471.098 1512 459.5 L 1512 453 C 1512 441.402 1521.402 432 1533 432 Z" fill="#ccc"/>
        <path d="M 1533 432 L 1622 432 C 1633.598 432 1643 441.402 1643 453 L 1643 459.5 C 1643 471.098 1633.598 480.5 1622 480.5 L 1533 480.5 C 1521.402 480.5 1512 471.098 1512 459.5 L 1512 453 C 1512 441.402 1521.402 432 1533 432 Z" stroke="gray" stroke-linecap="round" stroke-linejoin="round" stroke-width="1"/>
        <text transform="translate(1517 447.026)" fill="white">
          <tspan font-family="Helvetica Neue" font-size="16" fill="white" x="3.172" y="15">newInstance(…)</tspan>
        </text>
      </g>
      <g id="Graphic_34">
        <path d="M 1533 509 L 1622 509 C 1633.598 509 1643 518.402 1643 530 L 1643 536.5 C 1643 548.098 1633.598 557.5 1622 557.5 L 1533 557.5 C 1521.402 557.5 1512 548.098 1512 536.5 L 1512 530 C 1512 518.402 1521.402 509 1533 509 Z" fill="#ccc"/>
        <path d="M 1533 509 L 1622 509 C 1633.598 509 1643 518.402 1643 530 L 1643 536.5 C 1643 548.098 1633.598 557.5 1622 557.5 L 1533 557.5 C 1521.402 557.5 1512 548.098 1512 536.5 L 1512 530 C 1512 518.402 1521.402 509 1533 509 Z" stroke="gray" stroke-linecap="round" stroke-linejoin="round" stroke-width="1"/>
        <text transform="translate(1517 524.026)" fill="white">
          <tspan font-family="Helvetica Neue" font-size="16" fill="white" x="23.9" y="15">stream(…)</tspan>
        </text>
      </g>
      <g id="Graphic_35">
        <path d="M 1533 586 L 1622 586 C 1633.598 586 1643 595.402 1643 607 L 1643 613.5 C 1643 625.098 1633.598 634.5 1622 634.5 L 1533 634.5 C 1521.402 634.5 1512 625.098 1512 613.5 L 1512 607 C 1512 595.402 1521.402 586 1533 586 Z" fill="white"/>
        <path d="M 1533 586 L 1622 586 C 1633.598 586 1643 595.402 1643 607 L 1643 613.5 C 1643 625.098 1633.598 634.5 1622 634.5 L 1533 634.5 C 1521.402 634.5 1512 625.098 1512 613.5 L 1512 607 C 1512 595.402 1521.402 586 1533 586 Z" stroke="gray" stroke-linecap="round" stroke-linejoin="round" stroke-width="1"/>
        <text transform="translate(1517 601.026)" fill="black">
          <tspan font-family="Helvetica Neue" font-size="16" fill="black" x="30.724" y="15">reset(…)</tspan>
        </text>
      </g>
      <g id="Line_36">
        <path d="M 1248 533.25 L 1273.9297 533.25 C 1277.2434 533.25 1279.9297 535.9363 1279.9297 539.25 L 1279.9297 654.08984 C 1279.9297 657.40355 1282.616 660.08984 1285.9297 660.08984 L 1485.1 660.08984 C 1488.4137 660.08984 1491.1 657.40355 1491.1 654.08984 L 1491.1 616.25 C 1491.1 612.9363 1493.7863 610.25 1497.1 610.25 L 1502.1 610.25" marker-end="url(#FilledArrow_Marker)" stroke="black" stroke-linecap="round" stroke-linejoin="round" stroke-width="1"/>
      </g>
      <g id="Line_37">
        <line x1="1445" y1="379.25" x2="1502.1" y2="379.25" marker-end="url(#FilledArrow_Marker)" stroke="black" stroke-linecap="round" stroke-linejoin="round" stroke-width="1"/>
      </g>
      <g id="Line_38">
        <path d="M 1445 379.25 L 1472.5 379.25 C 1475.8137 379.25 1478.5 381.9363 1478.5 385.25 L 1478.5 450.25 C 1478.5 453.5637 1481.1863 456.25 1484.5 456.25 L 1502.1 456.25" marker-end="url(#FilledArrow_Marker)" stroke="black" stroke-linecap="round" stroke-linejoin="round" stroke-width="1"/>
      </g>
      <g id="Line_39">
        <path d="M 1445 379.25 L 1472.5 379.25 C 1475.8137 379.25 1478.5 381.9363 1478.5 385.25 L 1478.5 527.25 C 1478.5 530.5637 1481.1863 533.25 1484.5 533.25 L 1502.1 533.25" marker-end="url(#FilledArrow_Marker)" stroke="black" stroke-linecap="round" stroke-linejoin="round" stroke-width="1"/>
      </g>
      <g id="Line_40">
        <path d="M 1445 379.25 L 1472.5 379.25 C 1475.8137 379.25 1478.5 381.9363 1478.5 385.25 L 1478.5 604.25 C 1478.5 607.5637 1481.1863 610.25 1484.5 610.25 L 1502.1 610.25" marker-end="url(#FilledArrow_Marker)" stroke="black" stroke-linecap="round" stroke-linejoin="round" stroke-width="1"/>
      </g>
      <g id="Line_42">
        <path d="M 1643 610.25 L 1648 610.25 C 1651.3137 610.25 1654 612.9363 1654 616.25 L 1654 747.0534 C 1654 750.3671 1651.3137 753.0534 1648 753.0534 L 606 753.0534 C 602.6863 753.0534 600 750.3671 600 747.0534 L 600 385.25 C 600 381.9363 602.6863 379.25 606 379.25 L 630.6 379.25" marker-end="url(#FilledArrow_Marker)" stroke="black" stroke-linecap="round" stroke-linejoin="round" stroke-width="1"/>
      </g>
    </g>
  </g>
</svg>
