<?xml version="1.0" encoding="UTF-8" standalone="no"?>
<!DOCTYPE svg PUBLIC "-//W3C//DTD SVG 1.1//EN" "http://www.w3.org/Graphics/SVG/1.1/DTD/svg11.dtd">
<svg xmlns:xl="http://www.w3.org/1999/xlink" xmlns:dc="http://purl.org/dc/elements/1.1/" xmlns="http://www.w3.org/2000/svg" version="1.1" viewBox="325 248 533 797" width="533" height="797">
  <defs>
    <marker orient="auto" overflow="visible" markerUnits="strokeWidth" id="FilledArrow_Marker" stroke-linejoin="miter" stroke-miterlimit="10" viewBox="-1 -3 6 6" markerWidth="6" markerHeight="6" color="black">
      <g>
        <path d="M 3.7333333 0 L 0 -1.4 L 0 1.4 Z" fill="currentColor" stroke="currentColor" stroke-width="1"/>
      </g>
    </marker>
  </defs>
  <g id="Visibility" fill="none" stroke="none" fill-opacity="1" stroke-opacity="1" stroke-dasharray="none">
    <title>Visibility</title>
    <rect fill="white" x="325" y="248" width="533" height="797"/>
    <g id="Visibility_Layer_1">
      <title>Layer 1</title>
      <g id="Graphic_2">
        <rect x="326" y="249" width="261" height="245" fill="white"/>
        <rect x="326" y="249" width="261" height="245" stroke="gray" stroke-linecap="round" stroke-linejoin="round" stroke-width="1"/>
        <text transform="translate(331 254)" fill="black">
          <tspan font-family="Helvetica Neue" font-size="16" fill="black" x="85.348" y="15">Application</tspan>
        </text>
      </g>
      <g id="Graphic_4">
        <rect x="360" y="302" width="55" height="40" fill="white"/>
        <rect x="360" y="302" width="55" height="40" stroke="gray" stroke-linecap="round" stroke-linejoin="round" stroke-width="1"/>
        <text transform="translate(365 312.776)" fill="black">
          <tspan font-family="Helvetica Neue" font-size="16" fill="black" x="4.132" y="15">class</tspan>
        </text>
      </g>
      <g id="Graphic_9">
        <rect x="429" y="322" width="55" height="40" fill="white"/>
        <rect x="429" y="322" width="55" height="40" stroke="gray" stroke-linecap="round" stroke-linejoin="round" stroke-width="1"/>
        <text transform="translate(434 332.776)" fill="black">
          <tspan font-family="Helvetica Neue" font-size="16" fill="black" x="4.132" y="15">class</tspan>
        </text>
      </g>
      <g id="Graphic_10">
        <rect x="372" y="370" width="55" height="40" fill="white"/>
        <rect x="372" y="370" width="55" height="40" stroke="gray" stroke-linecap="round" stroke-linejoin="round" stroke-width="1"/>
        <text transform="translate(377 380.776)" fill="black">
          <tspan font-family="Helvetica Neue" font-size="16" fill="black" x="4.132" y="15">class</tspan>
        </text>
      </g>
      <g id="Graphic_11">
        <rect x="501" y="414" width="55" height="40" fill="white"/>
        <rect x="501" y="414" width="55" height="40" stroke="gray" stroke-linecap="round" stroke-linejoin="round" stroke-width="1"/>
        <text transform="translate(506 424.776)" fill="black">
          <tspan font-family="Helvetica Neue" font-size="16" fill="black" x="4.132" y="15">class</tspan>
        </text>
      </g>
      <g id="Graphic_12">
        <rect x="402" y="427" width="55" height="40" fill="white"/>
        <rect x="402" y="427" width="55" height="40" stroke="gray" stroke-linecap="round" stroke-linejoin="round" stroke-width="1"/>
        <text transform="translate(407 437.776)" fill="black">
          <tspan font-family="Helvetica Neue" font-size="16" fill="black" x="4.132" y="15">class</tspan>
        </text>
      </g>
      <g id="Graphic_15">
        <rect x="649" y="572" width="208" height="215" fill="white"/>
        <rect x="649" y="572" width="208" height="215" stroke="gray" stroke-linecap="round" stroke-linejoin="round" stroke-width="1"/>
        <text transform="translate(654 577)" fill="black">
          <tspan font-family="Helvetica Neue" font-size="16" fill="black" x="57.96" y="15">Compiler[2]</tspan>
        </text>
      </g>
      <g id="Graphic_19">
        <rect x="649" y="654" width="55" height="40" fill="white"/>
        <rect x="649" y="654" width="55" height="40" stroke="gray" stroke-linecap="round" stroke-linejoin="round" stroke-width="1"/>
        <text transform="translate(654 664.776)" fill="black">
          <tspan font-family="Helvetica Neue" font-size="16" fill="black" x="4.132" y="15">class</tspan>
        </text>
      </g>
      <g id="Graphic_18">
        <rect x="778" y="698" width="55" height="40" fill="white"/>
        <rect x="778" y="698" width="55" height="40" stroke="gray" stroke-linecap="round" stroke-linejoin="round" stroke-width="1"/>
        <text transform="translate(783 708.776)" fill="black">
          <tspan font-family="Helvetica Neue" font-size="16" fill="black" x="4.132" y="15">class</tspan>
        </text>
      </g>
      <g id="Graphic_17">
        <rect x="679" y="711" width="55" height="40" fill="white"/>
        <rect x="679" y="711" width="55" height="40" stroke="gray" stroke-linecap="round" stroke-linejoin="round" stroke-width="1"/>
        <text transform="translate(684 721.776)" fill="black">
          <tspan font-family="Helvetica Neue" font-size="16" fill="black" x="4.132" y="15">class</tspan>
        </text>
      </g>
      <g id="Graphic_13">
        <rect x="352.5" y="572" width="208" height="472" fill="white"/>
        <rect x="352.5" y="572" width="208" height="472" stroke="gray" stroke-linecap="round" stroke-linejoin="round" stroke-width="1"/>
        <text transform="translate(357.5 577)" fill="black">
          <tspan font-family="Helvetica Neue" font-size="16" fill="black" x="57.96" y="15">Compiler[1]</tspan>
        </text>
      </g>
      <g id="Group_32">
        <g id="Graphic_22">
          <rect x="364.5" y="654" width="55" height="40" fill="white"/>
          <rect x="364.5" y="654" width="55" height="40" stroke="gray" stroke-linecap="round" stroke-linejoin="round" stroke-width="1"/>
          <text transform="translate(369.5 664.776)" fill="black">
            <tspan font-family="Helvetica Neue" font-size="16" fill="black" x="4.132" y="15">class</tspan>
          </text>
        </g>
        <g id="Graphic_21">
          <rect x="493.5" y="698" width="55" height="40" fill="white"/>
          <rect x="493.5" y="698" width="55" height="40" stroke="gray" stroke-linecap="round" stroke-linejoin="round" stroke-width="1"/>
          <text transform="translate(498.5 708.776)" fill="black">
            <tspan font-family="Helvetica Neue" font-size="16" fill="black" x="4.132" y="15">class</tspan>
          </text>
        </g>
        <g id="Graphic_20">
          <rect x="394.5" y="711" width="55" height="40" fill="white"/>
          <rect x="394.5" y="711" width="55" height="40" stroke="gray" stroke-linecap="round" stroke-linejoin="round" stroke-width="1"/>
          <text transform="translate(399.5 721.776)" fill="black">
            <tspan font-family="Helvetica Neue" font-size="16" fill="black" x="4.132" y="15">class</tspan>
          </text>
        </g>
      </g>
      <g id="Line_23">
        <line x1="456.5" y1="572" x2="456.5" y2="509.9" marker-end="url(#FilledArrow_Marker)" stroke="black" stroke-linecap="round" stroke-linejoin="round" stroke-dasharray="3.0,12.0" stroke-width="3"/>
      </g>
      <g id="Line_24">
        <line x1="649.5138" y1="572" x2="585.45325" y2="505.4548" marker-end="url(#FilledArrow_Marker)" stroke="black" stroke-linecap="round" stroke-linejoin="round" stroke-dasharray="3.0,12.0" stroke-width="3"/>
      </g>
      <g id="Group_33">
        <g id="Graphic_28">
          <rect x="364.5" y="780" width="55" height="40" fill="white"/>
          <rect x="364.5" y="780" width="55" height="40" stroke="gray" stroke-linecap="round" stroke-linejoin="round" stroke-width="1"/>
          <text transform="translate(369.5 790.776)" fill="black">
            <tspan font-family="Helvetica Neue" font-size="16" fill="black" x="4.132" y="15">class</tspan>
          </text>
        </g>
        <g id="Graphic_27">
          <rect x="493.5" y="824" width="55" height="40" fill="white"/>
          <rect x="493.5" y="824" width="55" height="40" stroke="gray" stroke-linecap="round" stroke-linejoin="round" stroke-width="1"/>
          <text transform="translate(498.5 834.776)" fill="black">
            <tspan font-family="Helvetica Neue" font-size="16" fill="black" x="4.132" y="15">class</tspan>
          </text>
        </g>
        <g id="Graphic_26">
          <rect x="394.5" y="837" width="55" height="40" fill="white"/>
          <rect x="394.5" y="837" width="55" height="40" stroke="gray" stroke-linecap="round" stroke-linejoin="round" stroke-width="1"/>
          <text transform="translate(399.5 847.776)" fill="black">
            <tspan font-family="Helvetica Neue" font-size="16" fill="black" x="4.132" y="15">class</tspan>
          </text>
        </g>
      </g>
      <g id="Group_34">
        <g id="Graphic_31">
          <rect x="364.5" y="906" width="55" height="40" fill="white"/>
          <rect x="364.5" y="906" width="55" height="40" stroke="gray" stroke-linecap="round" stroke-linejoin="round" stroke-width="1"/>
          <text transform="translate(369.5 916.776)" fill="black">
            <tspan font-family="Helvetica Neue" font-size="16" fill="black" x="4.132" y="15">class</tspan>
          </text>
        </g>
        <g id="Graphic_30">
          <rect x="493.5" y="950" width="55" height="40" fill="white"/>
          <rect x="493.5" y="950" width="55" height="40" stroke="gray" stroke-linecap="round" stroke-linejoin="round" stroke-width="1"/>
          <text transform="translate(498.5 960.776)" fill="black">
            <tspan font-family="Helvetica Neue" font-size="16" fill="black" x="4.132" y="15">class</tspan>
          </text>
        </g>
        <g id="Graphic_29">
          <rect x="394.5" y="963" width="55" height="40" fill="white"/>
          <rect x="394.5" y="963" width="55" height="40" stroke="gray" stroke-linecap="round" stroke-linejoin="round" stroke-width="1"/>
          <text transform="translate(399.5 973.776)" fill="black">
            <tspan font-family="Helvetica Neue" font-size="16" fill="black" x="4.132" y="15">class</tspan>
          </text>
        </g>
      </g>
      <g id="Graphic_35">
        <rect x="329" y="881.5" width="255" height="20" fill="white"/>
        <rect x="329" y="881.5" width="255" height="20" stroke="gray" stroke-linecap="round" stroke-linejoin="round" stroke-width="1"/>
        <text transform="translate(334 882.276)" fill="black">
          <tspan font-family="Helvetica Neue" font-size="16" fill="black" x="0" y="15">reset</tspan>
        </text>
      </g>
      <g id="Graphic_36">
        <rect x="329" y="755.5" width="255" height="20" fill="white"/>
        <rect x="329" y="755.5" width="255" height="20" stroke="gray" stroke-linecap="round" stroke-linejoin="round" stroke-width="1"/>
        <text transform="translate(334 756.276)" fill="black">
          <tspan font-family="Helvetica Neue" font-size="16" fill="black" x="0" y="15">reset</tspan>
        </text>
      </g>
      <g id="Graphic_37"/>
      <g id="Graphic_38"/>
      <g id="Graphic_39"/>
      <g id="Line_40">
        <line x1="470" y1="921.5" x2="470" y2="862.9" marker-end="url(#FilledArrow_Marker)" stroke="black" stroke-linecap="round" stroke-linejoin="round" stroke-dasharray="3.0,12.0" stroke-width="3"/>
      </g>
      <g id="Line_41">
        <line x1="470" y1="784.5" x2="470" y2="733.9" marker-end="url(#FilledArrow_Marker)" stroke="black" stroke-linecap="round" stroke-linejoin="round" stroke-dasharray="3.0,12.0" stroke-width="3"/>
      </g>
      <g id="Graphic_43">
        <text transform="translate(625 518)" fill="black">
          <tspan font-family="Helvetica Neue" font-size="16" fill="black" x="2344791e-19" y="15">visibility</tspan>
        </text>
      </g>
    </g>
  </g>
</svg>
